<svg width="1024" height="1024" viewBox="0 0 1024 1024" fill="none" xmlns="http://www.w3.org/2000/svg">
<rect width="1024" height="1024" fill="white"/>
<path d="M741.049 595.182C741.049 615.947 724.216 632.78 703.451 632.78H602.602C581.838 632.78 565.005 615.947 565.005 595.182V532.711V386.096C565.005 365.332 548.172 348.499 527.407 348.499H415.086H322.104C301.339 348.499 284.506 331.666 284.506 310.901V213.834C284.506 193.07 301.339 176.237 322.104 176.237H452.74H703.451C724.216 176.237 741.049 193.07 741.049 213.834V429.453V595.182Z" fill="url(#paint0_linear_34_23)"/>
<path d="M602.602 637.985C581.393 637.985 564.199 620.791 564.199 599.582V390.497C564.199 370.177 547.727 353.705 527.407 353.705H322.104C300.894 353.705 283.7 336.511 283.7 315.301V218.234C283.7 197.025 300.894 179.831 322.104 179.831H703.451C724.661 179.831 741.854 197.025 741.854 218.234V599.582L741.851 600.078C741.586 621.059 724.495 637.985 703.451 637.985H602.602Z" stroke="url(#paint1_linear_34_23)" stroke-opacity="0.6" stroke-width="3"/>
<path d="M293.637 434.152C293.637 413.388 310.47 396.555 331.234 396.555H485.939C506.703 396.555 523.536 413.388 523.536 434.152V588.856C523.536 609.621 506.703 626.454 485.939 626.454H331.234C310.47 626.454 293.637 609.621 293.637 588.856V434.152Z" fill="url(#paint2_linear_34_23)"/>
<path d="M485.939 395.749C507.148 395.749 524.342 412.943 524.342 434.152V588.856C524.342 610.066 507.148 627.26 485.939 627.26H331.234C310.025 627.26 292.831 610.066 292.831 588.856V434.152C292.831 412.943 310.025 395.749 331.234 395.749H485.939Z" stroke="url(#paint3_linear_34_23)" stroke-opacity="0.6" stroke-width="3"/>
<path d="M310.994 832H282.693L271.443 802.732H219.939L209.305 832H181.707L231.893 703.152H259.402L310.994 832ZM263.094 781.023L245.34 733.211L227.938 781.023H263.094ZM324.002 738.66H347.029V752.371C350.018 747.684 354.061 743.875 359.158 740.945C364.256 738.016 369.91 736.551 376.121 736.551C386.961 736.551 396.16 740.799 403.719 749.295C411.277 757.791 415.057 769.627 415.057 784.803C415.057 800.389 411.248 812.518 403.631 821.189C396.014 829.803 386.785 834.109 375.945 834.109C370.789 834.109 366.102 833.084 361.883 831.033C357.723 828.982 353.328 825.467 348.699 820.486V867.508H324.002V738.66ZM348.436 783.748C348.436 794.236 350.516 802 354.676 807.039C358.836 812.02 363.904 814.51 369.881 814.51C375.623 814.51 380.398 812.225 384.207 807.654C388.016 803.025 389.92 795.467 389.92 784.979C389.92 775.193 387.957 767.928 384.031 763.182C380.105 758.436 375.242 756.062 369.441 756.062C363.406 756.062 358.396 758.406 354.412 763.094C350.428 767.723 348.436 774.607 348.436 783.748ZM434.041 738.66H457.068V752.371C460.057 747.684 464.1 743.875 469.197 740.945C474.295 738.016 479.949 736.551 486.16 736.551C497 736.551 506.199 740.799 513.758 749.295C521.316 757.791 525.096 769.627 525.096 784.803C525.096 800.389 521.287 812.518 513.67 821.189C506.053 829.803 496.824 834.109 485.984 834.109C480.828 834.109 476.141 833.084 471.922 831.033C467.762 828.982 463.367 825.467 458.738 820.486V867.508H434.041V738.66ZM458.475 783.748C458.475 794.236 460.555 802 464.715 807.039C468.875 812.02 473.943 814.51 479.92 814.51C485.662 814.51 490.438 812.225 494.246 807.654C498.055 803.025 499.959 795.467 499.959 784.979C499.959 775.193 497.996 767.928 494.07 763.182C490.145 758.436 485.281 756.062 479.48 756.062C473.445 756.062 468.436 758.406 464.451 763.094C460.467 767.723 458.475 774.607 458.475 783.748ZM544.783 726.004V703.152H569.48V726.004H544.783ZM544.783 832V738.66H569.48V832H544.783ZM584.07 738.66H597.781V731.629C597.781 723.777 598.602 717.918 600.242 714.051C601.941 710.184 605.018 707.049 609.471 704.646C613.982 702.186 619.666 700.955 626.521 700.955C633.553 700.955 640.438 702.01 647.176 704.119L643.836 721.346C639.91 720.408 636.131 719.939 632.498 719.939C628.924 719.939 626.346 720.789 624.764 722.488C623.24 724.129 622.479 727.322 622.479 732.068V738.66H640.936V758.084H622.479V832H597.781V758.084H584.07V738.66ZM708.875 802.293L733.484 806.424C730.32 815.447 725.311 822.332 718.455 827.078C711.658 831.766 703.133 834.109 692.879 834.109C676.648 834.109 664.637 828.807 656.844 818.201C650.691 809.705 647.615 798.982 647.615 786.033C647.615 770.564 651.658 758.465 659.744 749.734C667.83 740.945 678.055 736.551 690.418 736.551C704.305 736.551 715.262 741.15 723.289 750.35C731.316 759.49 735.154 773.523 734.803 792.449H672.928C673.104 799.773 675.096 805.486 678.904 809.588C682.713 813.631 687.459 815.652 693.143 815.652C697.01 815.652 700.262 814.598 702.898 812.488C705.535 810.379 707.527 806.98 708.875 802.293ZM710.281 777.332C710.105 770.184 708.26 764.764 704.744 761.072C701.229 757.322 696.951 755.447 691.912 755.447C686.521 755.447 682.068 757.41 678.553 761.336C675.037 765.262 673.309 770.594 673.367 777.332H710.281ZM743.152 832L776.814 783.924L744.559 738.66H774.705L791.229 764.324L808.631 738.66H837.635L805.994 782.869L840.535 832H810.213L791.229 803.084L772.068 832H743.152Z" fill="black"/>
<defs>
<linearGradient id="paint0_linear_34_23" x1="478.402" y1="176.237" x2="482.699" y2="695.622" gradientUnits="userSpaceOnUse">
<stop stop-color="#00D632"/>
<stop offset="1" stop-color="#00AE29"/>
</linearGradient>
<linearGradient id="paint1_linear_34_23" x1="339.472" y1="590.62" x2="741.049" y2="180.637" gradientUnits="userSpaceOnUse">
<stop stop-color="#63FF7B"/>
<stop offset="0.652836" stop-color="#167C0F"/>
</linearGradient>
<linearGradient id="paint2_linear_34_23" x1="408.587" y1="396.555" x2="408.578" y2="690.353" gradientUnits="userSpaceOnUse">
<stop stop-color="#00D632"/>
<stop offset="1" stop-color="#00AE29"/>
</linearGradient>
<linearGradient id="paint3_linear_34_23" x1="495.857" y1="420.001" x2="293.637" y2="626.454" gradientUnits="userSpaceOnUse">
<stop stop-color="#63FF7B"/>
<stop offset="0.652836" stop-color="#167C0F"/>
</linearGradient>
</defs>
</svg>
