<svg width="31" height="41" viewBox="0 0 31 41" fill="none" xmlns="http://www.w3.org/2000/svg">
<path d="M28 21C28 22 27.6132 24.5 27.2113 26C28.3159 26 28.5 23.5 30.5 21C28.4793 17.5 28.6046 16 27.5 16C27.9019 17.5 28 20 28 21Z" fill="#FFD966"/>
<path d="M13.5 39C13.5 37.8954 12.6046 37 11.5 37C10.3954 37 2 38.4641 3.49691e-07 39C2 39.5359 10.3954 41 11.5 41C12.6046 41 13.5 40.1046 13.5 39Z" fill="#FFD966"/>
<path d="M13.5 2C13.5 0.895433 12.6046 2.20385e-06 11.5 2.01072e-06C10.3954 1.81759e-06 2 1.4641 3.49691e-07 2C2 2.5359 10.3954 4 11.5 4C12.6046 4 13.5 3.10457 13.5 2Z" fill="#FFD966"/>
</svg>