<svg width="31" height="41" viewBox="0 0 31 41" fill="none" xmlns="http://www.w3.org/2000/svg">
<path d="M3.00391 21C3.00391 22 3.39066 24.5 3.79258 26C2.68801 26 2.50391 23.5 0.503906 21C2.52463 17.5 2.39934 16 3.50391 16C3.10198 17.5 3.00391 20 3.00391 21Z" fill="#FFD966"/>
<path d="M16.9941 2C16.9941 3.10457 17.8896 4 18.9941 4C20.0987 4 28.4941 2.5359 30.4941 2C28.4941 1.4641 20.0987 0 18.9941 0C17.8896 0 16.9941 0.89543 16.9941 2Z" fill="#FFD966"/>
<path d="M16.9941 39C16.9941 40.1046 17.8896 41 18.9941 41C20.0987 41 28.4941 39.5359 30.4941 39C28.4941 38.4641 20.0987 37 18.9941 37C17.8896 37 16.9941 37.8954 16.9941 39Z" fill="#FFD966"/>
</svg>
