<svg width="59" height="25" viewBox="0 0 59 25" fill="none" xmlns="http://www.w3.org/2000/svg">
<path fill-rule="evenodd" clip-rule="evenodd" d="M18.886 0.258621C19.2816 0.431035 19.6256 0.672414 19.9181 0.965517C20.2105 1.25862 20.4341 1.60345 20.6233 2C20.7953 2.39655 20.8813 2.82759 20.8813 3.27586V19.6207C20.8813 19.7759 20.8297 19.8966 20.7265 20C20.6233 20.1034 20.5029 20.1552 20.3481 20.1552H16.4434C16.2886 20.1552 16.1682 20.1034 16.0822 20C15.9962 19.8966 15.9446 19.7759 15.9446 19.6207V4.75862H12.7968V19.6207C12.7968 19.7759 12.7452 19.8966 12.6592 20C12.5732 20.1034 12.4355 20.1552 12.2979 20.1552H8.7545C8.59969 20.1552 8.47928 20.1034 8.37608 20C8.27287 19.8966 8.22126 19.7759 8.22126 19.6207V4.75862H5.07345V19.6207C5.07345 19.9828 4.90144 20.1552 4.54022 20.1552H0.669955C0.30873 20.1552 0.136719 19.9828 0.136719 19.6207V0.534483C0.136719 0.172414 0.30873 0 0.669955 0H17.5959C18.0603 0 18.4732 0.0862069 18.886 0.258621Z" fill="white"/>
<path fill-rule="evenodd" clip-rule="evenodd" d="M37.8939 15.2586C38.0487 15.2586 38.1863 15.3103 38.2723 15.4138C38.3755 15.5172 38.4271 15.6552 38.4271 15.8103V19.6207C38.4271 19.7759 38.3755 19.8965 38.2723 20.0172C38.1691 20.1207 38.0487 20.1724 37.8939 20.1724H24.5286C24.1502 20.1724 23.9609 19.9828 23.9609 19.6207V0.551724C23.9609 0.189655 24.1502 0 24.5286 0H28.6225C29.0009 0 29.1901 0.189655 29.1901 0.551724V14.7586C29.1901 14.9138 29.2417 15.0345 29.3621 15.1379C29.4653 15.2414 29.6029 15.2759 29.7577 15.2759H37.8939V15.2586Z" fill="white"/>
<path fill-rule="evenodd" clip-rule="evenodd" d="M58.4315 0C58.5863 0 58.7239 0.0517241 58.8271 0.155172C58.9303 0.258621 58.9991 0.396552 58.9991 0.551724V19.6724C58.9991 19.8276 58.9475 19.9483 58.8271 20.069C58.7239 20.1724 58.5863 20.2241 58.4315 20.2241H54.2688C54.114 20.2241 53.9764 20.1724 53.8732 20.069C53.77 19.9655 53.7012 19.8276 53.7012 19.6724V13C53.7012 12.8448 53.6496 12.7241 53.5463 12.6207C53.4431 12.5172 53.3227 12.4828 53.1507 12.4828H47.3195C47.1647 12.4828 47.0271 12.5345 46.9239 12.6207C46.8207 12.7241 46.7519 12.8448 46.7519 13V19.6724C46.7519 20.0345 46.5627 20.2241 46.1843 20.2241H42.056C41.6776 20.2241 41.4883 20.0345 41.4883 19.6724V0.551724C41.4883 0.189655 41.6776 0 42.056 0H46.1843C46.5627 0 46.7519 0.189655 46.7519 0.551724V7.01724C46.7519 7.37931 46.9411 7.56897 47.3195 7.56897H53.1507C53.3055 7.56897 53.4431 7.51724 53.5463 7.41379C53.6496 7.31035 53.7012 7.17241 53.7012 7.01724V0.551724C53.7012 0.396552 53.7528 0.275862 53.8732 0.155172C53.9764 0.0517241 54.114 0 54.2688 0H58.4315Z" fill="white"/>
</svg>
